<svg xmlns="http://www.w3.org/2000/svg" viewBox="0 0 512 512">
  <rect width="512" height="512" fill="#008000" rx="100" ry="100"/>
  <path d="M 256 60 A 8 8 0 0 0 248 68 L 248 92 L 196 92 A 12 12 0 0 0 184 104 L 184 128 A 12 12 0 0 0 196 140 L 248 140 L 248 164 L 220 164 A 12 12 0 0 0 208 176 L 208 200 A 12 12 0 0 0 220 212 L 248 212 L 248 280 A 136 136 0 0 0 100 416 L 100 440 A 12 12 0 0 0 112 452 L 400 452 A 12 12 0 0 0 412 440 L 412 416 A 136 136 0 0 0 264 280 L 264 212 L 292 212 A 12 12 0 0 0 304 200 L 304 176 A 12 12 0 0 0 292 164 L 264 164 L 264 140 L 316 140 A 12 12 0 0 0 328 128 L 328 104 A 12 12 0 0 0 316 92 L 264 92 L 264 68 A 8 8 0 0 0 256 60 z" fill="white"/>
</svg> 